<?xml version="1.0" encoding="UTF-8" standalone="no"?>
<!-- Created with Inkscape (http://www.inkscape.org/) -->

<svg
   xmlns:dc="http://purl.org/dc/elements/1.1/"
   xmlns:cc="http://creativecommons.org/ns#"
   xmlns:rdf="http://www.w3.org/1999/02/22-rdf-syntax-ns#"
   xmlns:svg="http://www.w3.org/2000/svg"
   xmlns="http://www.w3.org/2000/svg"
   xmlns:sodipodi="http://sodipodi.sourceforge.net/DTD/sodipodi-0.dtd"
   xmlns:inkscape="http://www.inkscape.org/namespaces/inkscape"
   sodipodi:docname="LogoEvFin.svg"
   inkscape:version="0.91 r13725"
   version="1.1"
   id="svg4931"
   viewBox="0 0 283.91005 155.45435"
   height="43.872673mm"
   width="80.125725mm">
  <sodipodi:namedview
     inkscape:window-maximized="1"
     inkscape:window-y="24"
     inkscape:window-x="57"
     inkscape:window-height="744"
     inkscape:window-width="1309"
     showgrid="false"
     inkscape:current-layer="layer1"
     inkscape:document-units="px"
     inkscape:cy="-236.58186"
     inkscape:cx="234.03731"
     inkscape:zoom="0.7"
     inkscape:pageshadow="2"
     inkscape:pageopacity="0.0"
     borderopacity="1.0"
     bordercolor="#666666"
     pagecolor="#ffffff"
     id="base"
     fit-margin-top="0"
     fit-margin-left="0"
     fit-margin-right="0"
     fit-margin-bottom="0" />
  <defs
     id="defs4933" />
  <metadata
     id="metadata4936">
    <rdf:RDF>
      <cc:Work
         rdf:about="">
        <dc:format>image/svg+xml</dc:format>
        <dc:type
           rdf:resource="http://purl.org/dc/dcmitype/StillImage" />
        <dc:title></dc:title>
      </cc:Work>
    </rdf:RDF>
  </metadata>
  <g
     inkscape:label="Capa 1"
     inkscape:groupmode="layer"
     id="layer1"
     transform="translate(-21.428569,-11.301673)">
    <path
       sodipodi:nodetypes="ccccc"
       inkscape:connector-curvature="0"
       id="rect4156"
       d="M 21.428569,19.505063 252.1176,38.269873 287.48452,108.10022 96.006639,166.75602 Z"
       style="fill:#0000ff;fill-rule:nonzero;stroke:none" />
    <g
       transform="matrix(0,-1,1,0,-316.63397,112.0526)"
       id="text4152-2"
       style="font-style:normal;font-weight:normal;font-size:7.5px;line-height:125%;font-family:sans-serif;letter-spacing:0px;word-spacing:0px;fill:#000080;fill-opacity:1;stroke:none;stroke-width:1px;stroke-linecap:butt;stroke-linejoin:miter;stroke-opacity:1">
      <path
         inkscape:connector-curvature="0"
         id="path4160-5"
         style="font-style:normal;font-variant:normal;font-weight:normal;font-stretch:normal;font-size:90px;font-family:'Arial Black';-inkscape-font-specification:'Arial Black, ';fill:#000080"
         d="m 80.2831,427.44685 c 0,0 -3.07512,38.27042 -3.07512,38.27042 0,0 -48.11697,32.0767 -48.11697,32.0767 -10.10236,6.73464 -17.96027,10.91466 -23.64077,12.55947 -5.76192,1.71345 -11.28055,0.95982 -16.68372,-2.40309 -5.66754,-3.48934 -10.147897,-10.3933 -13.420127,-21.23558 -3.780935,-12.52783 -5.424541,-24.11817 -4.620685,-34.26031 0.850235,-10.72728 3.827255,-20.99419 9.018915,-30.56044 5.440407,-9.84083 13.065407,-18.69319 22.783327,-26.34628 0,0 11.76062,46.93086 11.76062,46.93086 -4.84401,3.30154 -8.3564,6.25722 -10.52741,8.85455 -2.15605,2.57937 -3.72397,5.53406 -4.70288,8.83693 -0.61977,2.20197 -0.64369,4.72992 -0.0853,7.55901 0.86171,4.36586 2.77656,6.60124 5.733,6.80484 2.97038,0.22481 7.50081,-1.70469 13.6231,-5.78606 0,0 61.95402,-41.30102 61.95402,-41.30102 0,0 0,0 0,0" />
      <path
         inkscape:connector-curvature="0"
         id="path4162-4"
         style="font-style:normal;font-variant:normal;font-weight:normal;font-stretch:normal;font-size:90px;font-family:'Arial Black';-inkscape-font-specification:'Arial Black, ';fill:#000080"
         d="m 27.98703,556.00079 c 0,0 14.4644,-9.64253 14.4644,-9.64253 0,0 1.51332,25.52169 1.51332,25.52169 0,0 -25.90426,17.26883 -25.90426,17.26883 -4.77898,-1.36247 -8.4074,-3.16347 -10.77432,-5.41711 -2.42633,-2.34324 -4.3991,-5.94732 -5.9076,-10.95102 -1.98291,-6.57727 -2.20215,-13.32866 -0.48243,-20.12389 1.81582,-7.11169 5.59949,-14.43355 11.40537,-21.84971 5.98399,-7.59941 13.3504,-14.35528 21.96661,-20.09918 9.06967,-6.04621 16.97508,-9.28813 23.55578,-9.71533 6.41146,-0.43806 10.98565,1.91963 13.74774,6.84214 2.02138,3.66604 2.63854,9.6654 1.95445,17.67778 -0.61624,7.21761 -1.70876,12.74974 -3.27018,16.84427 -1.51603,3.9963 -3.65439,7.82147 -6.40868,11.51153 -2.67397,3.62358 -5.98299,7.18687 -9.93721,10.71692 0,0 -3.56972,-13.45027 -3.56972,-13.45027 2.49329,-2.37258 4.41376,-4.87491 5.76547,-7.52838 1.3749,-2.67187 2.09653,-5.44653 2.14809,-8.3481 0.0795,-4.47468 -1.56616,-7.04434 -5.0048,-7.57698 -3.494,-0.53651 -9.08195,1.72782 -16.69573,6.80348 -8.08966,5.39288 -13.66056,10.58397 -16.65371,15.47682 -2.91163,4.79607 -3.90251,9.30227 -3.05729,13.46855 0.3886,1.9155 1.09273,3.47905 2.10421,4.70304 0.99303,1.20167 2.47861,2.30379 4.43588,3.30511 0,0 6.16,-4.10649 6.16,-4.10649 0,0 -1.55539,-11.33117 -1.55539,-11.33117 0,0 0,0 0,0" />
    </g>
    <g
       transform="matrix(0.10412631,-1,1,0,-285.69073,91.584773)"
       id="text4152"
       style="font-style:normal;font-weight:normal;font-size:7.5px;line-height:125%;font-family:sans-serif;letter-spacing:0px;word-spacing:0px;fill:#ff0000;fill-opacity:1;stroke:none;stroke-width:1px;stroke-linecap:butt;stroke-linejoin:miter;stroke-opacity:1">
      <path
         inkscape:connector-curvature="0"
         id="path4160"
         style="font-style:normal;font-variant:normal;font-weight:normal;font-stretch:normal;font-size:90px;font-family:'Arial Black';-inkscape-font-specification:'Arial Black, ';fill:#ff0000"
         d="m 80.2831,427.44685 c 0,0 -3.07512,38.27042 -3.07512,38.27042 0,0 -48.11697,32.0767 -48.11697,32.0767 -10.10236,6.73464 -17.96027,10.91466 -23.64077,12.55947 -5.76192,1.71345 -11.28055,0.95982 -16.68372,-2.40309 -5.66754,-3.48934 -10.147897,-10.3933 -13.420127,-21.23558 -3.780935,-12.52783 -5.424541,-24.11817 -4.620685,-34.26031 0.850235,-10.72728 3.827255,-20.99419 9.018915,-30.56044 5.440407,-9.84083 13.065407,-18.69319 22.783327,-26.34628 0,0 11.76062,46.93086 11.76062,46.93086 -4.84401,3.30154 -8.3564,6.25722 -10.52741,8.85455 -2.15605,2.57937 -3.72397,5.53406 -4.70288,8.83693 -0.61977,2.20197 -0.64369,4.72992 -0.0853,7.55901 0.86171,4.36586 2.77656,6.60124 5.733,6.80484 2.97038,0.22481 7.50081,-1.70469 13.6231,-5.78606 0,0 61.95402,-41.30102 61.95402,-41.30102 0,0 0,0 0,0" />
      <path
         inkscape:connector-curvature="0"
         id="path4162"
         style="font-style:normal;font-variant:normal;font-weight:normal;font-stretch:normal;font-size:90px;font-family:'Arial Black';-inkscape-font-specification:'Arial Black, ';fill:#ff0000"
         d="m 27.98703,556.00079 c 0,0 14.4644,-9.64253 14.4644,-9.64253 0,0 1.51332,25.52169 1.51332,25.52169 0,0 -25.90426,17.26883 -25.90426,17.26883 -4.77898,-1.36247 -8.4074,-3.16347 -10.77432,-5.41711 -2.42633,-2.34324 -4.3991,-5.94732 -5.9076,-10.95102 -1.98291,-6.57727 -2.20215,-13.32866 -0.48243,-20.12389 1.81582,-7.11169 5.59949,-14.43355 11.40537,-21.84971 5.98399,-7.59941 13.3504,-14.35528 21.96661,-20.09918 9.06967,-6.04621 16.97508,-9.28813 23.55578,-9.71533 6.41146,-0.43806 10.98565,1.91963 13.74774,6.84214 2.02138,3.66604 2.63854,9.6654 1.95445,17.67778 -0.61624,7.21761 -1.70876,12.74974 -3.27018,16.84427 -1.51603,3.9963 -3.65439,7.82147 -6.40868,11.51153 -2.67397,3.62358 -5.98299,7.18687 -9.93721,10.71692 0,0 -3.56972,-13.45027 -3.56972,-13.45027 2.49329,-2.37258 4.41376,-4.87491 5.76547,-7.52838 1.3749,-2.67187 2.09653,-5.44653 2.14809,-8.3481 0.0795,-4.47468 -1.56616,-7.04434 -5.0048,-7.57698 -3.494,-0.53651 -9.08195,1.72782 -16.69573,6.80348 -8.08966,5.39288 -13.66056,10.58397 -16.65371,15.47682 -2.91163,4.79607 -3.90251,9.30227 -3.05729,13.46855 0.3886,1.9155 1.09273,3.47905 2.10421,4.70304 0.99303,1.20167 2.47861,2.30379 4.43588,3.30511 0,0 6.16,-4.10649 6.16,-4.10649 0,0 -1.55539,-11.33117 -1.55539,-11.33117 0,0 0,0 0,0" />
    </g>
  </g>
</svg>
